HIERARCHY
ROOT Hips
{
    OFFSET 0.000000 0.000000 0.000000
    CHANNELS 6 Xposition Yposition Zposition Zrotation Xrotation Yrotation
    JOINT Spine
    {
        OFFSET -0.000000 14.517291 0.000000
        CHANNELS 3 Zrotation Xrotation Yrotation
        JOINT Spine1
        {
            OFFSET -0.000000 37.558300 0.000000
            CHANNELS 3 Zrotation Xrotation Yrotation
            JOINT Neck
            {
                OFFSET -0.000000 37.404057 3.400369
                CHANNELS 3 Zrotation Xrotation Yrotation
                JOINT Head
                {
                    OFFSET -0.000000 24.785618 -3.540803
                    CHANNELS 3 Zrotation Xrotation Yrotation
                    End Site
                    {
                        OFFSET -0.000000 35.408028 0.000000
                    }
                }
            }
            JOINT LeftShoulder
            {
                OFFSET 6.992933 33.973492 -0.192664
                CHANNELS 3 Zrotation Xrotation Yrotation
                JOINT LeftArm
                {
                    OFFSET 21.527611 0.000000 0.000000
                    CHANNELS 3 Zrotation Xrotation Yrotation
                    JOINT LeftForeArm
                    {
                        OFFSET 56.353916 0.000000 0.000000
                        CHANNELS 3 Zrotation Xrotation Yrotation
                        JOINT LeftHand
                        {
                            OFFSET 47.774071 0.000000 0.000000
                            CHANNELS 3 Zrotation Xrotation Yrotation
                            End Site
                            {
                                OFFSET 26.556021 0.000000 0.000000
                            }
                        }
                    }
                }
            }
            JOINT RightShoulder
            {
                OFFSET -7.065357 33.973492 -0.192664
                CHANNELS 3 Zrotation Xrotation Yrotation
                JOINT RightArm
                {
                    OFFSET -21.527611 0.000000 0.000000
                    CHANNELS 3 Zrotation Xrotation Yrotation
                    JOINT RightForeArm
                    {
                        OFFSET -56.353916 0.000000 0.000000
                        CHANNELS 3 Zrotation Xrotation Yrotation
                        JOINT RightHand
                        {
                            OFFSET -47.774071 0.000000 0.000000
                            CHANNELS 3 Zrotation Xrotation Yrotation
                            End Site
                            {
                                OFFSET -26.556021 0.000000 0.000000
                            }
                        }
                    }
                }
            }
        }
    }
    JOINT LeftUpLeg
    {
        OFFSET 17.704014 0.000000 0.000000
        CHANNELS 3 Zrotation Xrotation Yrotation
        JOINT LeftLeg
        {
            OFFSET -0.000000 -81.181816 0.000000
            CHANNELS 3 Zrotation Xrotation Yrotation
            JOINT LeftFoot
            {
                OFFSET -0.000000 -62.821102 0.000000
                CHANNELS 3 Zrotation Xrotation Yrotation
                JOINT LeftToeBase
                {
                    OFFSET -0.000000 -11.507608 26.556021
                    CHANNELS 3 Zrotation Xrotation Yrotation
                    End Site
                    {
                        OFFSET -0.000000 0.000000 7.081605
                    }
                }
            }
        }
    }
    JOINT RightUpLeg
    {
        OFFSET -17.704014 0.000000 0.000000
        CHANNELS 3 Zrotation Xrotation Yrotation
        JOINT RightLeg
        {
            OFFSET -0.000000 -81.181816 0.000000
            CHANNELS 3 Zrotation Xrotation Yrotation
            JOINT RightFoot
            {
                OFFSET -0.000000 -62.821102 0.000000
                CHANNELS 3 Zrotation Xrotation Yrotation
                JOINT RightToeBase
                {
                    OFFSET -0.000000 -11.507608 26.556021
                    CHANNELS 3 Zrotation Xrotation Yrotation
                    End Site
                    {
                        OFFSET -0.000000 0.000000 7.081605
                    }
                }
            }
        }
    }
}
MOTION
Frames:    13
Frame Time:    0.008333
-12.362125    152.056625    -98.437759    1.461279    -6.513451    45.714233    -3.186897    0.037269    -2.211547    -0.696831    2.306083    -0.724575    -1.112769    5.175052    -18.951939    16.739510    1.151486    -17.491541    7.300318    6.516790    -18.239376    -17.898285    14.452102    -67.953651    -13.220336    -11.270937    -129.295593    -12.256237    -35.564205    -17.139952    2.694591    12.279502    -5.747416    35.401043    17.508959    43.011921    -13.917611    2.002145    31.099695    -27.740959    -3.932941    38.234623    19.091749    -2.763210    -4.201892    -19.303286    41.759834    -20.021088    8.105587    -31.494938    50.830624    0.000000    0.000000    0.000000    -22.785553    -15.795703    -24.248920    10.388110    29.560867    -19.142220    7.119043    7.201129    -8.146820    0.000000    0.000000    0.000000    
-12.370324    152.053619    -98.454620    1.468330    -6.514863    45.697556    -3.193332    0.040962    -2.209916    -0.688485    2.296897    -0.724326    -1.129486    5.182829    -18.947943    16.754297    1.160396    -17.485085    7.296470    6.533173    -18.242641    -17.918478    14.442844    -67.970451    -13.223935    -11.282537    -129.265701    -12.251869    -35.566116    -17.120153    2.682157    12.286139    -5.738172    35.417130    17.503122    43.011250    -13.923326    2.003856    31.105770    -27.750607    -3.935794    38.246937    19.081158    -2.759978    -4.204531    -19.300690    41.766121    -20.031202    8.119828    -31.491213    50.853031    0.000000    0.000000    0.000000    -22.784515    -15.796620    -24.266685    10.373542    29.552759    -19.110783    7.101644    7.204004    -8.143384    0.000000    0.000000    0.000000    
-12.379092    152.053284    -98.466743    1.477072    -6.520706    45.679913    -3.194038    0.040446    -2.205773    -0.697786    2.304476    -0.722708    -1.105877    5.169324    -18.942024    16.725451    1.170369    -17.486303    7.306979    6.542098    -18.232998    -17.920694    14.449706    -68.006195    -13.224354    -11.334825    -129.222839    -12.287707    -35.579491    -17.147326    2.696492    12.288823    -5.743650    35.381237    17.539436    43.031658    -13.951538    1.975586    31.102955    -27.730768    -3.946398    38.237331    19.072126    -2.749059    -4.211577    -19.298817    41.764362    -20.008436    8.124550    -31.481218    50.842194    0.000000    0.000000    0.000000    -22.775211    -15.790130    -24.257128    10.368936    29.529198    -19.104935    7.076446    7.204589    -8.144123    0.000000    0.000000    0.000000    
-12.391299    152.049728    -98.483345    1.483356    -6.517448    45.664280    -3.207207    0.038749    -2.202516    -0.686765    2.302877    -0.721791    -1.108349    5.161002    -18.936005    16.719807    1.175900    -17.481153    7.298074    6.540693    -18.244402    -17.949783    14.452308    -68.007637    -13.227118    -11.356324    -129.179276    -12.274657    -35.579990    -17.151657    2.696089    12.298373    -5.745687    35.364994    17.561840    43.048676    -13.981710    1.950998    31.104315    -27.714630    -3.953864    38.228531    19.064146    -2.751213    -4.221460    -19.322107    41.764832    -19.999443    8.135934    -31.491095    50.884258    0.000000    0.000000    0.000000    -22.776581    -15.801879    -24.267757    10.352845    29.529348    -19.085201    7.077621    7.202190    -8.136375    0.000000    0.000000    0.000000    
-12.403502    152.046356    -98.497437    1.492838    -6.513972    45.650066    -3.217405    0.032374    -2.204113    -0.690705    2.313462    -0.722130    -1.105983    5.155932    -18.928507    16.723349    1.173557    -17.472651    7.296843    6.543120    -18.240396    -17.967070    14.457724    -68.012993    -13.224584    -11.413845    -129.137543    -12.298355    -35.595951    -17.168287    2.699530    12.293675    -5.736426    35.384636    17.526913    43.052002    -13.954102    1.977797    31.108948    -27.726345    -3.941897    38.240414    19.055449    -2.750017    -4.242451    -19.347588    41.758438    -19.963453    8.128016    -31.492218    50.881565    0.000000    0.000000    0.000000    -22.783857    -15.805421    -24.248188    10.366894    29.515133    -19.115486    7.065338    7.203144    -8.119570    0.000000    0.000000    0.000000    
-12.418260    152.041504    -98.511902    1.498695    -6.512047    45.633339    -3.230858    0.029773    -2.205766    -0.680359    2.318520    -0.722855    -1.106884    5.125479    -18.911764    16.715515    1.193048    -17.458475    7.287851    6.543099    -18.230820    -18.007288    14.455858    -68.009865    -13.186295    -11.482460    -129.022629    -12.491990    -35.481575    -17.327982    2.703007    12.305253    -5.741302    35.362431    17.561598    43.083858    -14.004578    1.939210    31.106833    -27.712273    -3.960155    38.236370    19.052761    -2.748175    -4.255579    -19.380491    41.750542    -19.930786    8.133692    -31.496052    50.901443    0.000000    0.000000    0.000000    -22.783302    -15.820026    -24.260017    10.350315    29.522243    -19.105547    7.061834    7.202997    -8.104430    0.000000    0.000000    0.000000    
-12.432399    152.039688    -98.526047    1.510534    -6.510747    45.623158    -3.244252    0.029354    -2.207149    -0.674197    2.324723    -0.723392    -1.106523    5.138548    -18.914061    16.710535    1.168220    -17.458069    7.281821    6.549960    -18.236311    -18.043808    14.457839    -67.999451    -13.177958    -11.568939    -128.967926    -12.460447    -35.514088    -17.309036    2.703000    12.304869    -5.732336    35.377888    17.543322    43.088058    -14.004732    1.951080    31.112310    -27.720297    -3.953150    38.246048    19.041243    -2.738897    -4.267261    -19.388058    41.733936    -19.910349    8.125569    -31.502594    50.891369    0.000000    0.000000    0.000000    -22.789692    -15.817823    -24.233345    10.366586    29.505259    -19.130817    7.040271    7.208246    -8.089360    0.000000    0.000000    0.000000    
-12.452228    152.039124    -98.539307    1.514518    -6.508219    45.612026    -3.258712    0.024923    -2.208576    -0.666179    2.329959    -0.724013    -1.110640    5.123627    -18.908833    16.709566    1.183088    -17.454273    7.271266    6.563955    -18.228998    -18.077164    14.451434    -67.995399    -13.152018    -11.659766    -128.905212    -12.420449    -35.517719    -17.264763    2.714561    12.302644    -5.738377    35.373718    17.543432    43.101086    -14.016496    1.945067    31.121513    -27.710049    -3.950050    38.243195    19.037529    -2.740931    -4.261928    -19.381895    41.729458    -19.907553    8.126687    -31.488354    50.877285    0.000000    0.000000    0.000000    -22.788609    -15.829951    -24.247116    10.352909    29.507454    -19.106436    7.026998    7.210481    -8.083339    0.000000    0.000000    0.000000    
-12.470858    152.039352    -98.550240    1.521662    -6.510592    45.606964    -3.270653    0.029305    -2.216285    -0.660711    2.333941    -0.726663    -1.101015    5.115614    -18.908131    16.697796    1.176802    -17.455040    7.266612    6.572101    -18.217520    -18.141476    14.441462    -67.980080    -13.141293    -11.735606    -128.832275    -12.433954    -35.519264    -17.275637    2.719440    12.287878    -5.726678    35.391277    17.547197    43.095581    -14.033787    1.945086    31.120684    -27.718048    -3.953284    38.261574    19.036482    -2.736731    -4.274461    -19.397915    41.714008    -19.891428    8.124668    -31.492081    50.890610    0.000000    0.000000    0.000000    -22.787125    -15.831709    -24.251146    10.350554    29.499275    -19.107098    7.008204    7.224691    -8.074142    0.000000    0.000000    0.000000    
-12.496099    152.038391    -98.560448    1.526532    -6.509814    45.597939    -3.286749    0.035605    -2.218690    -0.644730    2.330015    -0.727861    -1.117503    5.121029    -18.914412    16.713306    1.164990    -17.456305    7.243381    6.583342    -18.202370    -18.182756    14.433994    -67.972816    -13.099870    -11.871099    -128.754242    -12.034206    -35.585304    -17.037472    2.715097    12.286631    -5.728685    35.392597    17.570507    43.111324    -14.065312    1.924723    31.118313    -27.690022    -3.951674    38.250839    19.037754    -2.735511    -4.282044    -19.403776    41.701172    -19.886860    8.123031    -31.490379    50.891815    0.000000    0.000000    0.000000    -22.781107    -15.841723    -24.259264    10.335226    29.498726    -19.104424    6.991709    7.228380    -8.049097    0.000000    0.000000    0.000000    
-12.519097    152.036316    -98.570007    1.534072    -6.507320    45.592468    -3.308222    0.037854    -2.222192    -0.625120    2.334094    -0.729432    -1.135988    5.113375    -18.914864    16.723368    1.161059    -17.452917    7.214837    6.592835    -18.187782    -18.230265    14.432008    -67.955986    -13.063074    -12.027926    -128.656052    -12.086344    -35.588017    -17.065634    2.708497    12.296220    -5.749489    35.394459    17.586576    43.146576    -14.090820    1.912157    31.126244    -27.701479    -3.961029    38.253963    19.037661    -2.727891    -4.288025    -19.415834    41.677006    -19.873209    8.138630    -31.470516    50.881203    0.000000    0.000000    0.000000    -22.781410    -15.843573    -24.262548    10.328196    29.490454    -19.089069    6.989868    7.228642    -8.045918    0.000000    0.000000    0.000000    
-12.544261    152.038712    -98.574677    1.539237    -6.504416    45.584839    -3.330506    0.038808    -2.221582    -0.611388    2.335003    -0.729560    -1.144000    5.128779    -18.921104    16.748438    1.139111    -17.452404    7.194469    6.613560    -18.160313    -18.272633    14.435048    -67.954498    -13.193115    -12.139423    -128.552414    -12.103686    -35.842903    -17.254574    2.708084    12.290202    -5.751577    35.428082    17.560772    43.144127    -14.071224    1.938332    31.139025    -27.716869    -3.946837    38.262749    19.042950    -2.714049    -4.303629    -19.426111    41.636295    -19.894304    8.144879    -31.465219    50.908844    0.000000    0.000000    0.000000    -22.777182    -15.852672    -24.261732    10.321085    29.487366    -19.086445    6.983346    7.225117    -8.047087    0.000000    0.000000    0.000000    
-12.570177    152.043335    -98.578186    1.547384    -6.496017    45.578827    -3.353226    0.036822    -2.225445    -0.611527    2.340965    -0.730809    -1.141961    5.116255    -18.934994    16.754295    1.151882    -17.468241    7.181592    6.627482    -18.123915    -18.388039    14.378106    -67.936737    -13.169848    -12.199874    -128.397476    -12.158811    -35.752022    -17.372452    2.716091    12.291977    -5.751846    35.448727    17.557291    43.148319    -14.080374    1.940952    31.151022    -27.711494    -3.937460    38.260712    19.036976    -2.698735    -4.305237    -19.414459    41.592934    -19.907017    8.132556    -31.462097    50.902618    0.000000    0.000000    0.000000    -22.779688    -15.862019    -24.268038    10.307111    29.488251    -19.083498    6.992507    7.229070    -8.020727    0.000000    0.000000    0.000000    
